<svg xmlns="http://www.w3.org/2000/svg" width="92" height="92" viewBox="0 0 92 92"
                                fill="none">
                                <path
                                    d="M60.7457 47.5805L61.5923 47.8345C61.5359 48.0744 61.4512 48.272 61.3242 48.4272C61.1972 48.5824 61.0561 48.7094 60.8727 48.7799C60.6893 48.8646 60.4635 48.9069 60.1813 48.9069C59.8426 48.9069 59.5745 48.8646 59.3488 48.7658C59.1371 48.667 58.9537 48.4977 58.7985 48.2437C58.6433 48.0039 58.5586 47.6793 58.5586 47.2983C58.5586 46.7904 58.6997 46.3953 58.9678 46.1131C59.2359 45.8309 59.631 45.7039 60.1249 45.7039C60.5199 45.7039 60.8163 45.7885 61.042 45.9437C61.2678 46.099 61.4371 46.3388 61.5359 46.6775L60.6893 46.8609C60.661 46.7621 60.6328 46.6916 60.5905 46.6493C60.5341 46.5787 60.4776 46.5223 60.3929 46.4799C60.3083 46.4376 60.2236 46.4235 60.139 46.4235C59.9273 46.4235 59.758 46.5082 59.6451 46.6916C59.5604 46.8186 59.5181 47.0302 59.5181 47.2983C59.5181 47.637 59.5745 47.8769 59.6733 48.0039C59.7721 48.1309 59.9273 48.2014 60.1107 48.2014C60.2942 48.2014 60.4353 48.145 60.5199 48.0462C60.6328 47.9192 60.7034 47.7781 60.7457 47.5805Z"
                                    fill="#225E63" />
                                <path
                                    d="M61.9312 47.2982C61.9312 46.7902 62.0723 46.3951 62.3545 46.1129C62.6367 45.8307 63.0318 45.6896 63.5397 45.6896C64.0618 45.6896 64.4569 45.8307 64.7391 46.0988C65.0213 46.381 65.1624 46.762 65.1624 47.2699C65.1624 47.6368 65.106 47.9331 64.979 48.1589C64.852 48.3847 64.6827 48.5681 64.4428 48.6951C64.217 48.8221 63.9207 48.8926 63.5821 48.8926C63.2293 48.8926 62.9471 48.8362 62.7072 48.7233C62.4815 48.6104 62.298 48.4411 62.1428 48.1871C61.9876 47.9331 61.9312 47.665 61.9312 47.2982ZM62.8907 47.2982C62.8907 47.6086 62.9471 47.8344 63.06 47.9755C63.1729 48.1166 63.3281 48.1871 63.5397 48.1871C63.7514 48.1871 63.9066 48.1166 64.0195 47.9896C64.1324 47.8485 64.1888 47.6086 64.1888 47.2699C64.1888 46.9736 64.1324 46.762 64.0054 46.635C63.8925 46.4939 63.7232 46.4374 63.5256 46.4374C63.3281 46.4374 63.1729 46.508 63.06 46.6491C62.9471 46.762 62.8907 46.9877 62.8907 47.2982Z"
                                    fill="#225E63" />
                                <path
                                    d="M65.6561 45.746H66.912L67.3917 47.6368L67.8715 45.746H69.1273V48.8503H68.3371V46.4798L67.7304 48.8503H67.0249L66.4181 46.4798V48.8503H65.6279V45.746H65.6561Z"
                                    fill="#225E63" />
                                <path
                                    d="M69.748 45.746H71.3425C71.6953 45.746 71.9493 45.8307 72.1186 46C72.2879 46.1693 72.3726 46.3951 72.3726 46.7055C72.3726 47.016 72.2738 47.27 72.0904 47.4393C71.9069 47.6227 71.6106 47.7074 71.2296 47.7074H70.7076V48.8644H69.748V45.746ZM70.7076 47.0724H70.9474C71.1309 47.0724 71.2579 47.0442 71.3425 46.9736C71.4131 46.9031 71.4554 46.8325 71.4554 46.7338C71.4554 46.635 71.4272 46.5503 71.3566 46.4798C71.2861 46.4092 71.1732 46.381 70.9898 46.381H70.7217V47.0724H70.7076Z"
                                    fill="#225E63" />
                                <path d="M72.8809 45.746H73.8404V48.0884H75.3361V48.8503H72.8809V45.746Z" fill="#225E63" />
                                <path d="M75.8154 45.746H76.7749V48.8503H75.8154V45.746Z" fill="#225E63" />
                                <path
                                    d="M79.3716 48.3283H78.2851L78.1299 48.8362H77.1562L78.3274 45.7319H79.3716L80.5428 48.8362H79.5409L79.3716 48.3283ZM79.174 47.6651L78.8354 46.5503L78.4967 47.6651H79.174Z"
                                    fill="#225E63" />
                                <path
                                    d="M80.8389 45.746H81.7278L82.899 47.4675V45.746H83.8021V48.8503H82.899L81.7419 47.143V48.8503H80.8389V45.746Z"
                                    fill="#225E63" />
                                <path
                                    d="M84.2256 45.746H87.1464V46.508H86.1728V48.8503H85.2133V46.508H84.2397V45.746H84.2256Z"
                                    fill="#225E63" />
                                <path
                                    d="M49.2032 50.473L51.9829 49.5982L51.0798 47.5945C50.4167 48.427 49.7535 49.4994 49.2032 50.473ZM48.2578 41.3153L42.8111 29.1804L2.93506 31.438L13.9835 61.5779L35.2479 54.8755C33.8933 52.9282 33.3995 50.6141 34.9657 49.4853C36.7154 48.2153 39.3541 49.6828 41.0332 51.757C42.6559 49.0478 47.2136 42.7405 48.2578 41.3153Z"
                                    fill="#225E63" />
                                <path
                                    d="M41.5689 37.9499C43.234 37.9499 44.5886 36.68 44.5886 35.0996C44.5886 33.5193 43.234 32.2493 41.5689 32.2493C39.9039 32.2493 38.5493 33.5193 38.5493 35.0996C38.5493 36.6659 39.9039 37.9499 41.5689 37.9499ZM39.0996 39.1776H44.0383V52.0886H39.0996V39.1776Z"
                                    fill="#FEFEFE" />
                                <path
                                    d="M36.6585 42.9451C36.7008 42.9592 36.729 42.9451 36.729 42.9027V39.6291C36.729 39.5868 36.7008 39.5444 36.6585 39.5162C36.6585 39.5162 36.0094 39.0929 34.0339 38.98C33.9352 38.9236 32.1996 38.9095 31.7339 38.98C24.5376 39.5585 24.2695 44.7653 24.2695 44.9911V46.261C24.2695 46.4162 24.2695 51.7359 31.7339 52.2015C32.4677 52.2579 33.8928 52.2015 34.0339 52.2015C35.7554 52.2015 36.9407 51.6794 36.9407 51.6794C36.983 51.6653 37.0112 51.623 37.0112 51.5806V48.5187C37.0112 48.4763 36.983 48.4622 36.9548 48.4904C36.9548 48.4904 36.4186 48.9138 34.0763 49.1536C33.4131 49.2242 33.0885 49.196 32.8487 49.1536C29.5186 48.5892 29.3634 46.1622 29.3634 46.1622C29.3634 46.1199 29.3493 46.0493 29.3493 46.0211V45.0898C29.3493 45.0475 29.3493 44.977 29.3634 44.9487C29.3634 44.9487 29.5892 42.3383 32.8487 42.0561H34.0763C35.5014 42.2395 36.6585 42.9451 36.6585 42.9451Z"
                                    fill="#FEFEFE" />
                                <path
                                    d="M10.5542 52.0463C10.5542 52.0886 10.5824 52.1168 10.6248 52.1168H15.4364C15.4787 52.1168 15.507 52.0886 15.507 52.0463V48.2929C15.507 48.2506 15.5352 48.2223 15.5775 48.2223C15.5775 48.2223 23.2677 48.7726 23.2677 43.6223C23.2677 39.5444 18.4419 39.107 16.8616 39.1776C16.8333 39.1776 10.6248 39.1776 10.6248 39.1776C10.5824 39.1776 10.5542 39.2058 10.5542 39.2481V52.0463ZM15.4223 45.3579V41.9855H16.6076C16.6076 41.9855 18.3149 42.0561 18.456 43.2273C18.4843 43.3119 18.4843 43.8904 18.456 43.9187C18.2303 45.2874 16.7487 45.3579 16.7487 45.3579H15.4223Z"
                                    fill="#FEFEFE" />
                                <path
                                    d="M41.7104 58.3184C42.1055 58.3184 42.4159 58.3184 42.9239 58.0927C44.6736 57.1755 50.5859 42.7405 56.8227 38.2957C56.865 38.2675 56.9073 38.2252 56.9355 38.1828C56.9779 38.1264 56.9779 38.0699 56.9779 38.0699C56.9779 38.0699 56.9779 37.7736 56.0607 37.7736C50.5153 37.6184 44.7441 49.2595 41.7104 53.8595C41.6681 53.916 41.4705 53.8595 41.4705 53.8595C41.4705 53.8595 39.4386 51.4607 37.6748 50.5436C37.6325 50.5295 37.4349 50.4589 37.2233 50.473C37.0822 50.473 36.2638 50.6423 35.8828 51.0374C35.4313 51.5172 35.4454 51.7853 35.4454 52.3638C35.4454 52.4061 35.4736 52.6037 35.53 52.7025C35.9674 53.4644 37.9288 56.1736 39.5515 57.6693C39.7914 57.8528 40.1724 58.3184 41.7104 58.3184Z"
                                    fill="#2BBC5D" />
                                <path
                                    d="M58.4595 33.9355H63.0736C63.9908 33.9355 64.7245 34.0625 65.2748 34.3024C65.8392 34.5564 66.3049 34.9092 66.6576 35.3607C67.0245 35.8263 67.2926 36.3625 67.4478 36.9693C67.6171 37.576 67.7018 38.2251 67.7018 38.9165C67.7018 39.9889 67.5748 40.8214 67.3349 41.4141C67.0951 42.0067 66.7564 42.5006 66.319 42.9098C65.8816 43.3049 65.4159 43.573 64.9221 43.7141C64.2448 43.8975 63.6239 43.9822 63.0736 43.9822H58.4595V33.9355ZM61.5638 36.2073V41.6963H62.3257C62.9748 41.6963 63.4405 41.6257 63.7086 41.4846C63.9767 41.3435 64.2024 41.0895 64.3576 40.7368C64.5128 40.384 64.5975 39.7914 64.5975 38.9871C64.5975 37.9147 64.4282 37.1951 64.0754 36.8C63.7227 36.4049 63.1582 36.2073 62.3398 36.2073H61.5638Z"
                                    fill="#225E63" />
                                <path
                                    d="M68.5625 40.6662L71.5257 40.4828C71.5962 40.9626 71.7232 41.3294 71.9208 41.5834C72.2453 41.9926 72.6969 42.1902 73.2895 42.1902C73.7269 42.1902 74.0797 42.0914 74.3196 41.8797C74.5594 41.6681 74.6864 41.4282 74.6864 41.1601C74.6864 40.9061 74.5735 40.6662 74.3478 40.4546C74.122 40.2429 73.5858 40.0595 72.7533 39.8761C71.3846 39.5656 70.4251 39.1564 69.8324 38.6485C69.2398 38.1405 68.9576 37.4914 68.9576 36.7012C68.9576 36.1791 69.1128 35.6994 69.4091 35.2337C69.7054 34.7681 70.157 34.4153 70.7637 34.1472C71.3705 33.8791 72.1889 33.7521 73.2331 33.7521C74.5171 33.7521 75.5048 33.992 76.168 34.4718C76.8453 34.9515 77.2404 35.7135 77.3674 36.7577L74.4324 36.927C74.3478 36.4755 74.1926 36.1509 73.9386 35.9393C73.6846 35.7276 73.3459 35.6288 72.9085 35.6288C72.5416 35.6288 72.2735 35.6994 72.0901 35.8546C71.9067 36.0098 71.822 36.1932 71.822 36.419C71.822 36.5742 71.8926 36.7294 72.0478 36.8564C72.1889 36.9834 72.5416 37.1104 73.0919 37.2233C74.4465 37.5196 75.4202 37.8159 76.0128 38.1123C76.6054 38.4086 77.0288 38.7896 77.2969 39.227C77.565 39.6644 77.6919 40.1724 77.6919 40.7227C77.6919 41.3718 77.5085 41.9644 77.1558 42.5006C76.803 43.0509 76.295 43.4601 75.66 43.7423C75.0251 44.0245 74.2067 44.1656 73.2331 44.1656C71.5257 44.1656 70.3404 43.8411 69.6772 43.1779C69.0281 42.5147 68.6613 41.6822 68.5625 40.6662Z"
                                    fill="#225E63" />
                                <path
                                    d="M78.4824 40.6662L81.4456 40.4828C81.5162 40.9626 81.6432 41.3294 81.8407 41.5834C82.1652 41.9926 82.6168 42.1902 83.2094 42.1902C83.6468 42.1902 83.9996 42.0914 84.2395 41.8797C84.4794 41.6681 84.6063 41.4282 84.6063 41.1601C84.6063 40.9061 84.4935 40.6662 84.2677 40.4546C84.0419 40.2429 83.5057 40.0595 82.6732 39.8761C81.3045 39.5656 80.345 39.1564 79.7524 38.6485C79.1738 38.1405 78.8775 37.4914 78.8775 36.7012C78.8775 36.1791 79.0327 35.6994 79.329 35.2337C79.6254 34.7681 80.0769 34.4153 80.6836 34.1472C81.2904 33.8791 82.1088 33.7521 83.153 33.7521C84.437 33.7521 85.4247 33.992 86.0879 34.4718C86.7652 34.9515 87.1603 35.7135 87.2873 36.7577L84.3524 36.927C84.2677 36.4755 84.1125 36.1509 83.8585 35.9393C83.6045 35.7276 83.2659 35.6288 82.8284 35.6288C82.4616 35.6288 82.1935 35.6994 82.01 35.8546C81.8266 36.0098 81.7419 36.1932 81.7419 36.419C81.7419 36.5742 81.8125 36.7294 81.9677 36.8564C82.1088 36.9834 82.4616 37.1104 83.0119 37.2233C84.3665 37.5196 85.3401 37.8159 85.9327 38.1123C86.5254 38.4086 86.9487 38.7896 87.2168 39.227C87.4849 39.6644 87.6119 40.1724 87.6119 40.7227C87.6119 41.3718 87.4284 41.9644 87.0757 42.5006C86.7229 43.0509 86.2149 43.4601 85.58 43.7423C84.945 44.0245 84.1266 44.1656 83.153 44.1656C81.4456 44.1656 80.2603 43.8411 79.5971 43.1779C78.934 42.5147 78.5671 41.6822 78.4824 40.6662Z"
                                    fill="#225E63" />
                            </svg>
