<svg xmlns="http://www.w3.org/2000/svg" width="68" height="28" viewBox="0 0 68 28"
                                fill="none">
                                <g clip-path="url(#clip0_3416_324)">
                                    <path fill-rule="evenodd" clip-rule="evenodd"
                                        d="M67.9961 14.4634C67.9961 9.67966 65.654 5.90497 61.1776 5.90497C56.6822 5.90497 53.9624 9.67966 53.9624 14.4261C53.9624 20.0507 57.1733 22.8911 61.782 22.8911C64.0296 22.8911 65.7295 22.3865 67.0139 21.6765V17.9391C65.7295 18.5745 64.2563 18.9669 62.3864 18.9669C60.5543 18.9669 58.9299 18.3316 58.7221 16.1265H67.9583C67.9583 15.8836 67.9961 14.9119 67.9961 14.4634ZM58.6655 12.6882C58.6655 10.5766 59.9687 9.69835 61.1587 9.69835C62.3108 9.69835 63.5385 10.5766 63.5385 12.6882H58.6655Z"
                                        fill="#635BFF" />
                                    <path fill-rule="evenodd" clip-rule="evenodd"
                                        d="M46.6717 5.90497C44.8207 5.90497 43.6308 6.76455 42.9697 7.36252L42.7242 6.20395H38.5688V27.9925L43.2908 27.0021L43.3097 21.7138C43.9897 22.1997 44.9907 22.8911 46.6528 22.8911C50.0338 22.8911 53.1125 20.2002 53.1125 14.2766C53.0936 8.85745 49.9771 5.90497 46.6717 5.90497ZM45.5385 18.78C44.4241 18.78 43.763 18.3876 43.3097 17.9018L43.2908 10.969C43.7819 10.4271 44.4619 10.0534 45.5385 10.0534C47.2573 10.0534 48.4472 11.9594 48.4472 14.4074C48.4472 16.9114 47.2761 18.78 45.5385 18.78Z"
                                        fill="#635BFF" />
                                    <path fill-rule="evenodd" clip-rule="evenodd"
                                        d="M32.0718 4.80246L36.8126 3.79338V0L32.0718 0.99039V4.80246Z" fill="#635BFF" />
                                    <path d="M36.8126 6.22266H32.0718V22.5734H36.8126V6.22266Z" fill="#635BFF" />
                                    <path fill-rule="evenodd" clip-rule="evenodd"
                                        d="M26.9909 7.60544L26.6887 6.22264H22.6089V22.5734H27.3308V11.4923C28.4452 10.0534 30.334 10.315 30.9195 10.5206V6.22264C30.3151 5.9984 28.1052 5.58729 26.9909 7.60544Z"
                                        fill="#635BFF" />
                                    <path fill-rule="evenodd" clip-rule="evenodd"
                                        d="M17.547 2.16766L12.9383 3.13937L12.9194 18.1073C12.9194 20.8729 15.016 22.9098 17.8114 22.9098C19.3602 22.9098 20.4935 22.6295 21.1168 22.2931V18.4998C20.5123 18.7427 17.5281 19.6023 17.5281 16.8366V10.2029H21.1168V6.22266H17.5281L17.547 2.16766Z"
                                        fill="#635BFF" />
                                    <path fill-rule="evenodd" clip-rule="evenodd"
                                        d="M4.77862 10.969C4.77862 10.2403 5.38304 9.95996 6.38409 9.95996C7.81957 9.95996 9.6328 10.3898 11.0683 11.1559V6.76455C9.50058 6.14789 7.95178 5.90497 6.38409 5.90497C2.54986 5.90497 0 7.88575 0 11.1933C0 16.3508 7.17738 15.5286 7.17738 17.7523C7.17738 18.6119 6.42187 18.8922 5.36415 18.8922C3.79646 18.8922 1.79434 18.2568 0.207766 17.3972V21.8446C1.96434 22.5921 3.73979 22.9098 5.36415 22.9098C9.29282 22.9098 11.9938 20.9851 11.9938 17.6402C11.9749 12.0715 4.77862 13.0619 4.77862 10.969Z"
                                        fill="#635BFF" />
                                </g>
                                <defs>
                                    <clipPath id="clip0_3416_324">
                                        <rect width="68" height="28" fill="white" />
                                    </clipPath>
                                </defs>
                            </svg>
